<svg width="27" height="27" viewBox="0 0 27 27" fill="none" xmlns="http://www.w3.org/2000/svg">
<g id="devicon:google" clip-path="url(#clip0_260_501)">
<path id="Vector" d="M9.69143 1.10742C7.11089 2.00263 4.88545 3.70177 3.34197 5.95526C1.79849 8.20875 1.01833 10.8978 1.11609 13.6275C1.21386 16.3571 2.18438 18.9835 3.88512 21.1208C5.58585 23.2581 7.92715 24.7936 10.5651 25.502C12.7038 26.0538 14.9444 26.078 17.0945 25.5726C19.0423 25.1351 20.8431 24.1992 22.3205 22.8567C23.8582 21.4167 24.9743 19.5849 25.5489 17.5581C26.1732 15.354 26.2843 13.0362 25.8737 10.7825H13.8641V15.7643H20.8193C20.6803 16.5589 20.3824 17.3172 19.9435 17.994C19.5046 18.6708 18.9336 19.252 18.2648 19.703C17.4156 20.265 16.4582 20.643 15.4541 20.8127C14.4471 21 13.4143 21 12.4073 20.8127C11.3866 20.6019 10.4211 20.1807 9.57238 19.5758C8.20868 18.6105 7.18473 17.2391 6.64665 15.6574C6.09962 14.046 6.09962 12.2991 6.64665 10.6877C7.02967 9.55817 7.66285 8.52977 8.49894 7.67921C9.45574 6.68799 10.6671 5.97946 12 5.63136C13.333 5.28325 14.7361 5.30903 16.0554 5.70586C17.0861 6.02209 18.0285 6.57486 18.8076 7.32006C19.5918 6.53986 20.3747 5.75765 21.1563 4.97342C21.5598 4.55171 21.9997 4.15018 22.3972 3.71838C21.2078 2.61168 19.8117 1.75048 18.289 1.18409C15.5161 0.177218 12.4819 0.150159 9.69143 1.10742Z" fill="white"/>
<path id="Vector_2" d="M9.69443 1.1084C12.4847 0.150489 15.5188 0.176835 18.292 1.18306C19.815 1.75329 21.2104 2.61864 22.3981 3.72945C21.9946 4.16125 21.5689 4.5648 21.1572 4.98449C20.3743 5.76603 19.5921 6.54488 18.8106 7.32104C18.0315 6.57584 17.0891 6.02307 16.0584 5.70684C14.7395 5.30862 13.3365 5.28135 12.0032 5.62803C10.6698 5.97471 9.45777 6.68194 8.49992 7.67212C7.66383 8.52267 7.03065 9.55108 6.64763 10.6806L2.46484 7.4421C3.96203 4.47311 6.55431 2.20207 9.69443 1.1084Z" fill="#E33629"/>
<path id="Vector_3" d="M1.35371 10.6506C1.57837 9.53634 1.95162 8.4573 2.46347 7.44238L6.64626 10.6889C6.09922 12.3003 6.09922 14.0472 6.64626 15.6586C5.25267 16.7348 3.8584 17.8163 2.46347 18.9032C1.18251 16.3534 0.791834 13.4482 1.35371 10.6506Z" fill="#F8BD00"/>
<path id="Vector_4" d="M13.8695 10.7826H25.8792C26.2898 13.0363 26.1786 15.3541 25.5543 17.5582C24.9797 19.585 23.8636 21.4168 22.3259 22.8568C20.976 21.8035 19.6201 20.7583 18.2703 19.7051C18.9395 19.2536 19.5107 18.6718 19.9496 17.9943C20.3886 17.3168 20.6862 16.5577 20.8247 15.7624H13.8695C13.8675 14.1038 13.8695 12.4432 13.8695 10.7826Z" fill="#587DBD"/>
<path id="Vector_5" d="M2.46484 18.9043C3.85978 17.8282 5.25404 16.7467 6.64763 15.6598C7.18679 17.2421 8.2122 18.6136 9.5774 19.5783C10.4288 20.1803 11.3964 20.5981 12.4184 20.805C13.4253 20.9923 14.4582 20.9923 15.4652 20.805C16.4693 20.6353 17.4267 20.2573 18.2759 19.6953C19.6258 20.7485 20.9817 21.7937 22.3316 22.847C20.8544 24.1903 19.0536 25.1268 17.1056 25.5649C14.9555 26.0704 12.7148 26.0461 10.5762 25.4943C8.88471 25.0427 7.30476 24.2465 5.93537 23.1557C4.48608 22.0048 3.30228 20.5547 2.46484 18.9043Z" fill="#319F43"/>
</g>
<defs>
<clipPath id="clip0_260_501">
<rect width="25.8271" height="25.8271" fill="white" transform="translate(0.698242 0.258911)"/>
</clipPath>
</defs>
</svg>
