<svg width="28" height="28" viewBox="0 0 28 28" fill="none" xmlns="http://www.w3.org/2000/svg">
<g id="twemoji:flag-china">
<path id="Vector" d="M28 20.9998C28 21.8249 27.6722 22.6162 27.0888 23.1997C26.5053 23.7831 25.714 24.1109 24.8889 24.1109H3.11111C2.28599 24.1109 1.49467 23.7831 0.911223 23.1997C0.327777 22.6162 0 21.8249 0 20.9998V6.99978C0 6.17466 0.327777 5.38334 0.911223 4.7999C1.49467 4.21645 2.28599 3.88867 3.11111 3.88867H24.8889C25.714 3.88867 26.5053 4.21645 27.0888 4.7999C27.6722 5.38334 28 6.17466 28 6.99978V20.9998Z" fill="#DE2910"/>
<path id="Vector_2" d="M8.66088 6.98169L9.23333 7.25858L9.69144 6.81836L9.6051 7.44836L10.1651 7.74858L9.53977 7.86058L9.42777 8.48591L9.12755 7.92591L8.49755 8.01225L8.93777 7.55414L8.66088 6.98169ZM12.2892 9.26914L12.0123 9.8408L12.4525 10.2997L11.8233 10.2126L11.5231 10.7734L11.4111 10.1472L10.785 10.0352L11.3458 9.73503L11.2587 9.1058L11.7175 9.54603L12.2892 9.26914ZM11.5449 12.2084L11.7533 12.8088L12.3888 12.822L11.8824 13.2055L12.0668 13.8145L11.5449 13.4512L11.023 13.8145L11.2065 13.2055L10.7002 12.822L11.3357 12.8088L11.5449 12.2084ZM8.66088 14.7595L9.23333 15.0364L9.69144 14.5961L9.6051 15.2261L10.1651 15.5264L9.53977 15.6384L9.42777 16.2637L9.12755 15.7037L8.49755 15.79L8.93777 15.3319L8.66088 14.7595ZM5.44399 8.51703L6.16655 10.5945L8.36455 10.6396L6.61222 11.968L7.24922 14.0727L5.44399 12.8166L3.63877 14.0727L4.27577 11.968L2.52344 10.6396L4.72144 10.5945L5.44399 8.51703Z" fill="#FFDE02"/>
</g>
</svg>
