<svg width="28" height="28" viewBox="0 0 28 28" fill="none" xmlns="http://www.w3.org/2000/svg">
<g id="twemoji:flag-egypt">
<path id="Vector" d="M28 21C28 21.8251 27.6722 22.6165 27.0888 23.1999C26.5053 23.7834 25.714 24.1111 24.8889 24.1111H3.11111C2.28599 24.1111 1.49467 23.7834 0.911223 23.1999C0.327777 22.6165 0 21.8251 0 21V7.00003C0 6.17491 0.327777 5.38359 0.911223 4.80014C1.49467 4.21669 2.28599 3.88892 3.11111 3.88892H24.8889C25.714 3.88892 26.5053 4.21669 27.0888 4.80014C27.6722 5.38359 28 6.17491 28 7.00003V21Z" fill="#141414"/>
<path id="Vector_2" d="M0 10.1111H28V17.8889H0V10.1111Z" fill="#EEEEEE"/>
<path id="Vector_3" d="M24.8889 3.88892H3.11111C2.28599 3.88892 1.49467 4.21669 0.911223 4.80014C0.327777 5.38359 0 6.17491 0 7.00003L0 10.1111H28V7.00003C28 6.17491 27.6722 5.38359 27.0888 4.80014C26.5053 4.21669 25.714 3.88892 24.8889 3.88892Z" fill="#CE1225"/>
<path id="Vector_4" d="M11.4722 16.7703C11.4722 16.7703 11.4846 16.9648 11.6542 17.062C11.6542 17.062 11.6059 17.2082 11.7879 17.293C11.9699 17.3777 12.6264 17.5115 13.7689 17.5115C14.9115 17.5115 15.5555 17.3902 15.7258 17.3046C15.8962 17.2199 15.9078 17.0254 15.9078 17.0254C15.9078 17.0254 16.0898 16.9282 16.0782 16.8069C16.0657 16.6855 15.8231 16.5518 15.8231 16.5518C15.8231 16.5518 15.7624 16.3939 15.5921 16.3332C15.4217 16.2725 14.8749 16.6008 13.8296 16.5518C12.7843 16.5035 12.1893 16.3449 11.9948 16.3573C11.8004 16.3698 11.7156 16.5642 11.7156 16.5642C11.7156 16.5642 11.4963 16.6614 11.4722 16.7703Z" fill="#BF9300"/>
<path id="Vector_5" d="M11.6064 16.7583C11.5963 16.8307 11.7526 16.9893 11.7526 16.9893C11.7526 16.9893 11.7526 17.1713 11.9105 17.2203C12.0684 17.2693 12.7124 17.3907 13.7578 17.3782C14.8031 17.3658 15.5443 17.3051 15.6291 17.232C15.7139 17.1589 15.787 17.001 15.787 17.001C15.787 17.001 15.9573 16.8796 15.9449 16.7824C15.9324 16.6852 15.6898 16.6245 15.6898 16.6245C15.6898 16.6245 15.6213 16.4783 15.5404 16.4176C15.4595 16.357 14.9369 16.6603 13.8184 16.6603C12.7241 16.6603 12.0925 16.3928 11.9836 16.4052C11.874 16.4177 11.8016 16.6238 11.8016 16.6238C11.8016 16.6238 11.6189 16.6735 11.6064 16.7583Z" fill="#EEEEEE"/>
<path id="Vector_6" d="M16.2232 12.0437C16.2232 12.0437 16.1991 11.4728 15.6764 11.5452C15.1538 11.6183 15.1172 11.8734 14.558 11.934L14.4429 11.9449C14.3496 11.6921 14.2981 11.4257 14.2904 11.1563C14.2904 10.7915 14.4001 10.6336 14.0229 10.4516C13.6464 10.2696 13.5733 10.4392 13.5733 10.4392C13.5733 10.4392 13.2816 10.2929 13.1479 10.4026C13.0141 10.5123 13.0872 10.7915 13.1479 10.7067C13.2085 10.6219 13.452 10.8646 13.452 10.8646C13.5344 11.2683 13.3003 11.7054 13.1401 11.9488C13.0849 11.9434 13.0405 11.941 12.9783 11.934C12.4191 11.8734 12.3825 11.6183 11.8599 11.5452C11.3372 11.472 11.3131 12.0437 11.3131 12.0437L11.1062 16.4553L11.5316 16.127L11.534 16.0749L12.4191 15.2886L12.5669 15.1408L12.2005 16.2118C12.2005 16.2118 11.6413 16.1753 11.7992 16.6248C11.7992 16.6248 11.884 16.3697 12.0302 16.4179C12.1764 16.4662 12.6011 16.5758 12.6011 16.5758L12.7473 16.8068L12.9293 16.6365L13.5002 16.6124C13.5002 16.6124 13.6822 16.6606 13.6705 16.8193C13.704 16.751 13.7141 16.6737 13.6993 16.5992L13.8712 16.5875C13.8527 16.6657 13.8621 16.748 13.8976 16.82C13.8852 16.6622 14.068 16.6132 14.068 16.6132L14.6389 16.6373L14.8216 16.8076L14.9679 16.5766C14.9679 16.5766 15.3925 16.4669 15.538 16.4187C15.6834 16.3705 15.769 16.6256 15.769 16.6256C15.9269 16.176 15.3676 16.2126 15.3676 16.2126L15.0184 15.1914L15.1164 15.2894L16.0015 16.0757L16.0039 16.1278L16.4293 16.456L16.2232 12.0437ZM13.8066 14.7177C12.9301 14.1764 12.8578 12.8098 12.8578 12.8098C12.8578 12.8098 13.3999 12.7818 13.7934 12.5057C14.1481 12.8207 14.7532 12.7849 14.7532 12.7849C14.7532 12.7849 14.712 14.1569 13.8066 14.7177ZM15.8102 11.8742L15.069 12.5788L14.9445 12.6286C14.817 12.6333 14.1963 12.6348 13.8051 12.2872C13.319 12.6278 12.6509 12.6519 12.6509 12.6519L12.5474 12.6107L11.7269 11.8742L11.5114 11.9628C11.5208 11.8749 11.569 11.6774 11.8365 11.7163C12.2752 11.7793 12.4564 12.0204 12.9184 12.0686L13.0491 12.0818L13.0032 12.1409C13.0748 12.1409 13.1805 12.1199 13.2583 12.1028L13.3462 12.1114L13.3065 12.2498C13.3688 12.2312 13.459 12.1775 13.5329 12.13L13.7351 12.1495L13.781 12.2133L13.935 12.1363L14.0384 12.1262C14.1279 12.1783 14.2554 12.2249 14.2554 12.2249L14.2795 12.1036C14.3892 12.1767 14.5712 12.1767 14.5712 12.1767C14.5502 12.1596 14.5292 12.116 14.5074 12.0787L14.6194 12.067C15.0814 12.0188 15.2619 11.7777 15.7013 11.7147C15.9689 11.6766 16.0171 11.8734 16.0264 11.9613L15.8102 11.8742Z" fill="#BF9300"/>
<path id="Vector_7" d="M13.5138 14.6929L13.0759 16.3573L12.3472 16.2119L13.1008 14.073L13.5138 14.6929ZM14.0575 14.6929L14.4946 16.3573L15.2242 16.2119L14.4705 14.073L14.0575 14.6929Z" fill="#EEEEEE"/>
<path id="Vector_8" d="M13.04 12.9426C13.04 12.9426 13.1007 13.6472 13.4165 14.194V12.7847C13.4165 12.7847 13.2096 12.906 13.04 12.9426ZM14.559 12.9667C14.559 12.9667 14.4984 13.6713 14.1826 14.2181V12.8088C14.1818 12.8088 14.3887 12.9301 14.559 12.9667Z" fill="#BF9300"/>
<path id="Vector_9" d="M13.1858 10.5607C13.1858 10.5607 13.2706 10.476 13.514 10.6455C13.6719 10.756 13.8119 10.84 13.8119 10.84C13.8119 10.84 13.9115 10.735 14.0577 10.7591C14.2039 10.7832 14.1222 10.9862 14.1463 11.4109C14.1705 11.8363 14.3408 12.0183 14.3408 12.0183L14.1339 11.897L14.1463 12.0307L13.9153 11.9211L13.8057 12.079L13.696 11.9086L13.5187 12.0167L13.465 11.8721L13.2581 11.9817C13.2581 11.9817 13.5622 11.6053 13.5863 11.1915C13.5933 11.0679 13.5622 10.7902 13.5622 10.7902C13.5622 10.7902 13.3686 10.5483 13.1858 10.5607Z" fill="#EEEEEE"/>
<path id="Vector_10" d="M12.092 16.8442C11.9528 16.9275 12.0073 16.978 12.092 17.0146C12.1768 17.0511 12.687 17.1126 13.7207 17.1359C14.7777 17.16 15.4342 17.0387 15.5189 16.9897C15.6037 16.9415 15.6162 16.8559 15.4707 16.8318C15.3245 16.8077 14.5957 16.929 13.7083 16.929C12.6147 16.9298 12.1527 16.8077 12.092 16.8442Z" fill="#BF9300"/>
</g>
</svg>
