<svg width="30" height="30" viewBox="0 0 30 30" fill="none" xmlns="http://www.w3.org/2000/svg">
<g id="logos:facebook" clip-path="url(#clip0_260_509)">
<path id="Vector" d="M29.5787 14.9466C29.5787 6.95668 23.1015 0.479492 15.1116 0.479492C7.12172 0.479492 0.644531 6.95668 0.644531 14.9466C0.644531 22.1675 5.93496 28.1526 12.8511 29.2379V19.1285H9.17785V14.9466H12.8511V11.7593C12.8511 8.13348 15.011 6.1307 18.3156 6.1307C19.8984 6.1307 21.554 6.41326 21.554 6.41326V9.97352H19.7298C17.9326 9.97352 17.3721 11.0887 17.3721 12.2329V14.9466H21.3844L20.743 19.1285H17.3721V29.2379C24.2883 28.1526 29.5787 22.1676 29.5787 14.9466Z" fill="#1877F2"/>
<path id="Vector_2" d="M20.74 19.1286L21.3814 14.9467H17.3691V12.233C17.3691 11.0888 17.9295 9.97368 19.7267 9.97368H21.5509V6.41342C21.5509 6.41342 19.8954 6.13086 18.3125 6.13086C15.008 6.13086 12.8481 8.13365 12.8481 11.7595V14.9467H9.1748V19.1286H12.8481V29.2381C13.5959 29.3553 14.3517 29.414 15.1086 29.4138C15.8655 29.414 16.6213 29.3553 17.3691 29.2381V19.1286H20.74Z" fill="white"/>
</g>
<defs>
<clipPath id="clip0_260_509">
<rect width="28.9342" height="28.9342" fill="white" transform="translate(0.644531 0.479492)"/>
</clipPath>
</defs>
</svg>
