<svg width="21" height="18" viewBox="0 0 21 18" fill="none" xmlns="http://www.w3.org/2000/svg">
<path d="M13.2007 8.39995H6.00076V10.5389C6.00076 10.5619 5.99419 10.5843 5.98182 10.6037C5.96945 10.623 5.9518 10.6383 5.93096 10.6479C5.91013 10.6575 5.88698 10.661 5.86426 10.6578C5.84154 10.6547 5.82019 10.6451 5.80276 10.6301L1.80078 7.19996L5.80276 3.76977C5.82019 3.75486 5.84154 3.74526 5.86426 3.74211C5.88698 3.73895 5.91013 3.74238 5.93096 3.75197C5.9518 3.76157 5.96945 3.77694 5.98182 3.79626C5.99419 3.81558 6.00076 3.83803 6.00076 3.86097V5.99996H13.2007" stroke="black" stroke-width="0.599997"/>
<path d="M7.79883 9.59982H14.9988V7.46083C14.9988 7.43789 15.0054 7.41543 15.0177 7.39611C15.0301 7.37679 15.0478 7.36142 15.0686 7.35183C15.0894 7.34223 15.1126 7.33881 15.1353 7.34196C15.158 7.34512 15.1794 7.35472 15.1968 7.36963L19.1988 10.7998L15.1968 14.23C15.1794 14.2449 15.158 14.2545 15.1353 14.2577C15.1126 14.2608 15.0894 14.2574 15.0686 14.2478C15.0478 14.2382 15.0301 14.2228 15.0177 14.2035C15.0054 14.1842 14.9988 14.1617 14.9988 14.1388V11.9998H7.79883" stroke="black" stroke-width="0.599997"/>
</svg>
